<svg version="1.1" viewBox="0.0 0.0 960.0 540.0" fill="none" stroke="none" stroke-linecap="square" stroke-miterlimit="10" xmlns:xlink="http://www.w3.org/1999/xlink" xmlns="http://www.w3.org/2000/svg"><clipPath id="g5671f25e5e_0_6256.0"><path d="m0 0l960.0 0l0 540.0l-960.0 0l0 -540.0z" clip-rule="nonzero"/></clipPath><g clip-path="url(#g5671f25e5e_0_6256.0)"><path fill="#ffffff" d="m0 0l960.0 0l0 540.0l-960.0 0z" fill-rule="evenodd"/><path fill="#000000" fill-opacity="0.0" d="m721.05365 245.06863l224.53546 0l0 267.55905l-224.53546 0z" fill-rule="evenodd"/><path fill="#eceff1" d="m754.05365 480.20926l28.265625 -40.0q-11.1875 -2.140625 -18.921875 -10.140625q-7.734375 -8.0 -7.734375 -20.265625q0 -14.390625 9.859375 -24.25q9.875 -9.875 23.734375 -9.875q14.40625 0 24.265625 9.875q9.875 9.859375 9.875 24.25q0 8.53125 -3.46875 16.53125q-3.46875 8.0 -10.9375 19.203125l-33.59375 48.53125l-21.34375 -13.859375zm90.125 0l28.265625 -40.0q-11.1875 -2.140625 -18.921875 -10.140625q-7.734375 -8.0 -7.734375 -20.265625q0 -14.390625 9.859375 -24.25q9.875 -9.875 23.734375 -9.875q14.40625 0 24.265625 9.875q9.875 9.859375 9.875 24.25q0 8.53125 -3.46875 16.53125q-3.46875 8.0 -10.9375 19.203125l-33.59375 48.53125l-21.34375 -13.859375z" fill-rule="nonzero"/></g></svg>