<svg version="1.1" viewBox="0.0 0.0 960.0 540.0" fill="none" stroke="none" stroke-linecap="square" stroke-miterlimit="10" xmlns:xlink="http://www.w3.org/1999/xlink" xmlns="http://www.w3.org/2000/svg"><clipPath id="g47d43b12e1_0_4.0"><path d="m0 0l960.0 0l0 540.0l-960.0 0l0 -540.0z" clip-rule="nonzero"/></clipPath><g clip-path="url(#g47d43b12e1_0_4.0)"><path fill="#000000" fill-opacity="0.0" d="m0 0l960.0 0l0 540.0l-960.0 0z" fill-rule="evenodd"/><path fill="#000000" fill-opacity="0.0" d="m265.935 32.276413l0 0c108.26523 -44.100803 232.34763 0.77093124 287.36353 103.91885c55.01593 103.147934 23.161255 231.19167 -73.77246 296.53766c-96.933716 65.34598 -227.57715 46.847137 -302.55832 -42.841614c-74.981155 -89.68872 -70.034874 -221.54262 11.455139 -305.3616l163.57712 159.03198z" fill-rule="evenodd"/><path fill="#000000" fill-opacity="0.0" d="m265.935 32.276413l0 0c108.26523 -44.100803 232.34763 0.77093124 287.36353 103.91885c55.01593 103.147934 23.161255 231.19167 -73.77246 296.53766c-96.933716 65.34598 -227.57715 46.847137 -302.55832 -42.841614c-74.981155 -89.68872 -70.034874 -221.54262 11.455139 -305.3616" fill-rule="evenodd"/><path stroke="#b7b7b7" stroke-width="4.0" stroke-linejoin="round" stroke-linecap="butt" d="m282.85727 26.141499l0.9680176 -0.30711746c0.85736084 -0.26922798 1.7153931 -0.53312874 2.5740662 -0.7917156c6.869446 -2.068697 13.779938 -3.7973385 20.710754 -5.1934204c13.861664 -2.792162 27.804688 -4.2540817 41.66324 -4.445715c27.717133 -0.3832636 55.096558 4.3146267 80.81195 13.614038c51.430725 18.598825 96.20529 55.603737 123.71329 107.1777c55.01587 103.147934 23.161255 231.19167 -73.77249 296.53766c-96.93375 65.34595 -227.5772 46.847137 -302.55835 -42.841583c-74.981155 -89.68875 -70.034874 -221.54265 11.455139 -305.36163" fill-rule="evenodd"/><path fill="#b7b7b7" stroke="#b7b7b7" stroke-width="4.0" stroke-linecap="butt" d="m281.34973 21.983223l-9.917236 8.300159l12.9322815 0.016395569z" fill-rule="evenodd"/><path fill="#000000" fill-opacity="0.0" d="m55.99475 57.56168l162.99213 0l0 73.98425l-162.99213 0z" fill-rule="evenodd"/><path fill="#000000" d="m68.901 74.221306q-0.28125 2.40625 -1.78125 3.71875q-1.484375 1.296875 -3.953125 1.296875q-2.6875 0 -4.3125 -1.921875q-1.625 -1.921875 -1.625 -5.15625l0 -1.453125q0 -2.125 0.75 -3.71875q0.765625 -1.609375 2.140625 -2.46875q1.390625 -0.859375 3.21875 -0.859375q2.421875 0 3.875 1.359375q1.453125 1.34375 1.6875 3.71875l-2.0 0q-0.265625 -1.796875 -1.140625 -2.609375q-0.859375 -0.8125 -2.421875 -0.8125q-1.921875 0 -3.015625 1.421875q-1.078125 1.40625 -1.078125 4.015625l0 1.46875q0 2.46875 1.03125 3.9375q1.03125 1.453125 2.890625 1.453125q1.65625 0 2.546875 -0.75q0.890625 -0.765625 1.1875 -2.640625l2.0 0zm4.3664093 -5.09375q1.28125 -1.5625 3.328125 -1.5625q3.578125 0 3.609375 4.015625l0 7.453125l-1.9375 0l0 -7.453125q0 -1.21875 -0.546875 -1.796875q-0.546875 -0.59375 -1.703125 -0.59375q-0.9375 0 -1.65625 0.5q-0.703125 0.5 -1.09375 1.3125l0 8.03125l-1.9375 0l0 -16.0l1.9375 0l0 6.09375zm16.778381 9.90625q-0.171875 -0.328125 -0.28125 -1.1875q-1.34375 1.390625 -3.203125 1.390625q-1.671875 0 -2.734375 -0.9375q-1.0625 -0.9375 -1.0625 -2.390625q0 -1.765625 1.328125 -2.734375q1.34375 -0.96875 3.765625 -0.96875l1.875 0l0 -0.890625q0 -1.015625 -0.609375 -1.609375q-0.59375 -0.59375 -1.765625 -0.59375q-1.03125 0 -1.734375 0.515625q-0.703125 0.515625 -0.703125 1.265625l-1.9375 0q0 -0.84375 0.59375 -1.625q0.609375 -0.796875 1.625 -1.25q1.03125 -0.453125 2.265625 -0.453125q1.953125 0 3.046875 0.96875q1.109375 0.96875 1.15625 2.671875l0 5.1875q0 1.5625 0.390625 2.46875l0 0.171875l-2.015625 0zm-3.203125 -1.46875q0.90625 0 1.71875 -0.46875q0.8125 -0.46875 1.171875 -1.21875l0 -2.3125l-1.5 0q-3.546875 0 -3.546875 2.078125q0 0.90625 0.59375 1.421875q0.609375 0.5 1.5625 0.5zm9.663834 -9.796875l0.0625 1.40625q1.296875 -1.609375 3.375 -1.609375q3.578125 0 3.609375 4.015625l0 7.453125l-1.9375 0l0 -7.453125q0 -1.21875 -0.546875 -1.796875q-0.546875 -0.59375 -1.703125 -0.59375q-0.9375 0 -1.65625 0.5q-0.703125 0.5 -1.09375 1.3125l0 8.03125l-1.9375 0l0 -11.265625l1.828125 0zm9.48671 5.53125q0 -2.625 1.21875 -4.171875q1.21875 -1.5625 3.234375 -1.5625q2.0625 0 3.21875 1.453125l0.09375 -1.25l1.75 0l0 11.0q0 2.1875 -1.296875 3.4375q-1.296875 1.265625 -3.484375 1.265625q-1.21875 0 -2.390625 -0.53125q-1.15625 -0.515625 -1.765625 -1.421875l1.0 -1.15625q1.234375 1.53125 3.03125 1.53125q1.40625 0 2.1875 -0.796875q0.78125 -0.78125 0.78125 -2.21875l0 -0.96875q-1.15625 1.328125 -3.15625 1.328125q-1.96875 0 -3.203125 -1.59375q-1.21875 -1.59375 -1.21875 -4.34375zm1.9375 0.21875q0 1.90625 0.78125 3.0q0.78125 1.09375 2.1875 1.09375q1.828125 0 2.671875 -1.65625l0 -5.15625q-0.875 -1.609375 -2.65625 -1.609375q-1.40625 0 -2.203125 1.09375q-0.78125 1.09375 -0.78125 3.234375zm15.168961 5.71875q-2.296875 0 -3.734375 -1.5q-1.4375 -1.5 -1.4375 -4.03125l0 -0.34375q0 -1.6875 0.640625 -3.0q0.640625 -1.3125 1.78125 -2.046875q1.15625 -0.75 2.5 -0.75q2.203125 0 3.421875 1.453125q1.21875 1.4375 1.21875 4.125l0 0.8125l-7.640625 0q0.046875 1.65625 0.96875 2.6875q0.9375 1.03125 2.375 1.03125q1.03125 0 1.734375 -0.421875q0.703125 -0.421875 1.234375 -1.109375l1.1875 0.921875q-1.421875 2.171875 -4.25 2.171875zm-0.25 -10.09375q-1.15625 0 -1.953125 0.84375q-0.796875 0.84375 -0.984375 2.375l5.65625 0l0 -0.140625q-0.09375 -1.46875 -0.796875 -2.265625q-0.703125 -0.8125 -1.921875 -0.8125z" fill-rule="nonzero"/><path fill="#000000" d="m61.979126 106.67443q1.03125 0 1.796875 -0.625q0.765625 -0.625 0.859375 -1.5625l1.8125 0q-0.046875 0.96875 -0.671875 1.84375q-0.609375 0.875 -1.640625 1.390625q-1.015625 0.515625 -2.15625 0.515625q-2.3125 0 -3.671875 -1.53125q-1.359375 -1.53125 -1.359375 -4.203125l0 -0.328125q0 -1.640625 0.609375 -2.921875q0.609375 -1.28125 1.734375 -1.984375q1.125 -0.703125 2.671875 -0.703125q1.890625 0 3.140625 1.140625q1.265625 1.125 1.34375 2.9375l-1.8125 0q-0.09375 -1.09375 -0.84375 -1.796875q-0.734375 -0.703125 -1.828125 -0.703125q-1.46875 0 -2.28125 1.0625q-0.796875 1.046875 -0.796875 3.046875l0 0.359375q0 1.953125 0.796875 3.015625q0.796875 1.046875 2.296875 1.046875zm6.1326904 -4.375q0 -1.65625 0.640625 -2.984375q0.65625 -1.328125 1.8125 -2.03125q1.171875 -0.71875 2.65625 -0.71875q2.296875 0 3.71875 1.59375q1.421875 1.578125 1.421875 4.234375l0 0.125q0 1.65625 -0.625 2.96875q-0.625 1.296875 -1.796875 2.03125q-1.171875 0.71875 -2.703125 0.71875q-2.28125 0 -3.703125 -1.59375q-1.421875 -1.59375 -1.421875 -4.21875l0 -0.125zm1.9375 0.21875q0 1.875 0.859375 3.015625q0.875 1.140625 2.328125 1.140625q1.46875 0 2.328125 -1.15625q0.875 -1.15625 0.875 -3.21875q0 -1.859375 -0.890625 -3.0q-0.875 -1.15625 -2.328125 -1.15625q-1.421875 0 -2.296875 1.140625q-0.875 1.125 -0.875 3.234375zm10.257446 -0.21875q0 -2.59375 1.234375 -4.15625q1.234375 -1.578125 3.21875 -1.578125q1.984375 0 3.140625 1.34375l0 -5.875l1.921875 0l0 16.0l-1.765625 0l-0.09375 -1.203125q-1.15625 1.40625 -3.21875 1.40625q-1.96875 0 -3.203125 -1.59375q-1.234375 -1.609375 -1.234375 -4.1875l0 -0.15625zm1.9375 0.21875q0 1.921875 0.78125 3.015625q0.796875 1.078125 2.1875 1.078125q1.84375 0 2.6875 -1.65625l0 -5.171875q-0.875 -1.59375 -2.65625 -1.59375q-1.421875 0 -2.21875 1.09375q-0.78125 1.09375 -0.78125 3.234375zm15.24707 5.71875q-2.296875 0 -3.734375 -1.5q-1.4375 -1.5 -1.4375 -4.03125l0 -0.34375q0 -1.6875 0.640625 -3.0q0.640625 -1.3125 1.78125 -2.046875q1.15625 -0.75 2.5 -0.75q2.203125 0 3.421875 1.453125q1.21875 1.4375 1.21875 4.125l0 0.8125l-7.640625 0q0.046875 1.65625 0.96875 2.6875q0.9375 1.03125 2.375 1.03125q1.03125 0 1.734375 -0.421875q0.703125 -0.421875 1.234375 -1.109375l1.1875 0.921875q-1.421875 2.171875 -4.25 2.171875zm-0.25 -10.09375q-1.15625 0 -1.953125 0.84375q-0.796875 0.84375 -0.984375 2.375l5.65625 0l0 -0.140625q-0.09375 -1.46875 -0.796875 -2.265625q-0.703125 -0.8125 -1.921875 -0.8125z" fill-rule="nonzero"/><path fill="#000000" fill-opacity="0.0" d="m8.595231 270.2152l149.35432 0l0 73.98425l-149.35432 0z" fill-rule="evenodd"/><path fill="#000000" d="m15.923356 285.54672l-3.5625 0l0 6.140625l-2.015625 0l0 -15.15625l5.015625 0q2.562499 0 3.937499 1.171875q1.390625 1.15625 1.390625 3.375q0 1.421875 -0.765625 2.484375q-0.765625 1.046875 -2.125 1.5625l3.546875 6.4375l0 0.125l-2.140625 0l-3.281249 -6.140625zm-3.5625 -1.625l3.0625 0q1.499999 0 2.374999 -0.765625q0.875 -0.78125 0.875 -2.078125q0 -1.390625 -0.84375 -2.140625q-0.828125 -0.75 -2.406249 -0.765625l-3.0625 0l0 5.75zm17.788467 6.65625q-1.125 1.3125 -3.3125 1.3125q-1.796875 0 -2.75 -1.046875q-0.9375 -1.046875 -0.9375 -3.09375l0 -7.328125l1.921875 0l0 7.28125q0 2.5625 2.078125 2.5625q2.21875 0 2.9375 -1.65625l0 -8.1875l1.9375 0l0 11.265625l-1.84375 0l-0.03125 -1.109375zm6.616928 -10.15625l0.0625 1.40625q1.296875 -1.609375 3.375 -1.609375q3.578125 0 3.609375 4.015625l0 7.453125l-1.9375 0l0 -7.453125q0 -1.21875 -0.546875 -1.796875q-0.546875 -0.59375 -1.703125 -0.59375q-0.9375 0 -1.65625 0.5q-0.703125 0.5 -1.09375 1.3125l0 8.03125l-1.9375 0l0 -11.265625l1.828125 0z" fill-rule="nonzero"/><path fill="#000000" d="m9.579606 314.95297q0 -2.59375 1.234375 -4.15625q1.234375 -1.578125 3.21875 -1.578125q1.984374 0 3.140624 1.34375l0 -5.875l1.921875 0l0 16.0l-1.765625 0l-0.09375 -1.203125q-1.15625 1.40625 -3.218749 1.40625q-1.96875 0 -3.203125 -1.59375q-1.234375 -1.609375 -1.234375 -4.1875l0 -0.15625zm1.9375 0.21875q0 1.921875 0.78125 3.015625q0.796875 1.078125 2.1875 1.078125q1.843749 0 2.687499 -1.65625l0 -5.171875q-0.875 -1.59375 -2.656249 -1.59375q-1.421875 0 -2.21875 1.09375q-0.78125 1.09375 -0.78125 3.234375zm10.059569 -0.21875q0 -1.65625 0.640625 -2.984375q0.65625 -1.328125 1.8125 -2.03125q1.171875 -0.71875 2.65625 -0.71875q2.296875 0 3.71875 1.59375q1.421875 1.578125 1.421875 4.234375l0 0.125q0 1.65625 -0.625 2.96875q-0.625 1.296875 -1.796875 2.03125q-1.171875 0.71875 -2.703125 0.71875q-2.28125 0 -3.703125 -1.59375q-1.421875 -1.59375 -1.421875 -4.21875l0 -0.125zm1.9375 0.21875q0 1.875 0.859375 3.015625q0.875 1.140625 2.328125 1.140625q1.46875 0 2.328125 -1.15625q0.875 -1.15625 0.875 -3.21875q0 -1.859375 -0.890625 -3.0q-0.875 -1.15625 -2.328125 -1.15625q-1.421875 0 -2.296875 1.140625q-0.875 1.125 -0.875 3.234375zm15.257446 4.15625q1.03125 0 1.796875 -0.625q0.765625 -0.625 0.859375 -1.5625l1.8125 0q-0.046875 0.96875 -0.671875 1.84375q-0.609375 0.875 -1.640625 1.390625q-1.015625 0.515625 -2.15625 0.515625q-2.3125 0 -3.671875 -1.53125q-1.359375 -1.53125 -1.359375 -4.203125l0 -0.328125q0 -1.640625 0.609375 -2.921875q0.609375 -1.28125 1.734375 -1.984375q1.125 -0.703125 2.671875 -0.703125q1.890625 0 3.140625 1.140625q1.265625 1.125 1.34375 2.9375l-1.8125 0q-0.09375 -1.09375 -0.84375 -1.796875q-0.734375 -0.703125 -1.828125 -0.703125q-1.46875 0 -2.28125 1.0625q-0.796875 1.046875 -0.796875 3.046875l0 0.359375q0 1.953125 0.796875 3.015625q0.796875 1.046875 2.296875 1.046875zm9.78894 -3.859375l-1.21875 1.265625l0 3.953125l-1.921875 0l0 -16.0l1.921875 0l0 9.671875l1.03125 -1.234375l3.515625 -3.703125l2.34375 0l-4.390625 4.703125l4.890625 6.5625l-2.25 0l-3.921875 -5.21875zm12.132782 5.421875q-2.296875 0 -3.734375 -1.5q-1.4375 -1.5 -1.4375 -4.03125l0 -0.34375q0 -1.6875 0.640625 -3.0q0.640625 -1.3125 1.78125 -2.046875q1.15625 -0.75 2.5 -0.75q2.203125 0 3.421875 1.453125q1.21875 1.4375 1.21875 4.125l0 0.8125l-7.640625 0q0.046875 1.65625 0.96875 2.6875q0.9375 1.03125 2.375 1.03125q1.03125 0 1.734375 -0.421875q0.703125 -0.421875 1.234375 -1.109375l1.1875 0.921875q-1.421875 2.171875 -4.25 2.171875zm-0.25 -10.09375q-1.15625 0 -1.953125 0.84375q-0.796875 0.84375 -0.984375 2.375l5.65625 0l0 -0.140625q-0.09375 -1.46875 -0.796875 -2.265625q-0.703125 -0.8125 -1.921875 -0.8125zm12.314957 0.34375q-0.4375 -0.0625 -0.953125 -0.0625q-1.890625 0 -2.5625 1.609375l0 8.0l-1.9375 0l0 -11.265625l1.875 0l0.03125 1.296875q0.953125 -1.5 2.6875 -1.5q0.5625 0 0.859375 0.140625l0 1.78125zm16.590714 4.03125q0 2.59375 -1.1875 4.15625q-1.1875 1.5625 -3.1875 1.5625q-2.140625 0 -3.296875 -1.5l-0.09375 1.296875l-1.78125 0l0 -16.0l1.9375 0l0 5.96875q1.15625 -1.4375 3.203125 -1.4375q2.0625 0 3.234375 1.546875q1.171875 1.546875 1.171875 4.25l0 0.15625zm-1.921875 -0.21875q0 -1.96875 -0.765625 -3.03125q-0.765625 -1.078125 -2.1875 -1.078125q-1.90625 0 -2.734375 1.765625l0 4.875q0.875 1.78125 2.75 1.78125q1.390625 0 2.15625 -1.078125q0.78125 -1.078125 0.78125 -3.234375zm11.309586 4.625q-1.125 1.3125 -3.3125 1.3125q-1.796875 0 -2.75 -1.046875q-0.9375 -1.046875 -0.9375 -3.09375l0 -7.328125l1.921875 0l0 7.28125q0 2.5625 2.078125 2.5625q2.21875 0 2.9375 -1.65625l0 -8.1875l1.9375 0l0 11.265625l-1.84375 0l-0.03125 -1.109375zm6.882553 1.109375l-1.921875 0l0 -11.265625l1.921875 0l0 11.265625zm-2.078125 -14.25q0 -0.46875 0.28125 -0.796875q0.296875 -0.328125 0.859375 -0.328125q0.5625 0 0.84375 0.328125q0.296875 0.328125 0.296875 0.796875q0 0.46875 -0.296875 0.78125q-0.28125 0.3125 -0.84375 0.3125q-0.5625 0 -0.859375 -0.3125q-0.28125 -0.3125 -0.28125 -0.78125zm7.253952 14.25l-1.921875 0l0 -16.0l1.921875 0l0 16.0zm2.613327 -5.734375q0 -2.59375 1.234375 -4.15625q1.234375 -1.578125 3.21875 -1.578125q1.984375 0 3.140625 1.34375l0 -5.875l1.921875 0l0 16.0l-1.765625 0l-0.09375 -1.203125q-1.15625 1.40625 -3.21875 1.40625q-1.96875 0 -3.203125 -1.59375q-1.234375 -1.609375 -1.234375 -4.1875l0 -0.15625zm1.9375 0.21875q0 1.921875 0.78125 3.015625q0.796875 1.078125 2.1875 1.078125q1.84375 0 2.6875 -1.65625l0 -5.171875q-0.875 -1.59375 -2.65625 -1.59375q-1.421875 0 -2.21875 1.09375q-0.78125 1.09375 -0.78125 3.234375z" fill-rule="nonzero"/><path fill="#000000" fill-opacity="0.0" d="m106.2797 413.71915l143.62204 0l0 73.98425l-143.62204 0z" fill-rule="evenodd"/><path fill="#000000" d="m113.60783 429.05066l-3.5625 0l0 6.140625l-2.015625 0l0 -15.15625l5.015625 0q2.5625 0 3.9375 1.171875q1.390625 1.15625 1.390625 3.375q0 1.421875 -0.765625 2.484375q-0.765625 1.046875 -2.125 1.5625l3.546875 6.4375l0 0.125l-2.140625 0l-3.28125 -6.140625zm-3.5625 -1.625l3.0625 0q1.5 0 2.375 -0.765625q0.875 -0.78125 0.875 -2.078125q0 -1.390625 -0.84375 -2.140625q-0.828125 -0.75 -2.40625 -0.765625l-3.0625 0l0 5.75zm17.788467 6.65625q-1.125 1.3125 -3.3125 1.3125q-1.796875 0 -2.75 -1.046875q-0.9375 -1.046875 -0.9375 -3.09375l0 -7.328125l1.921875 0l0 7.28125q0 2.5625 2.078125 2.5625q2.21875 0 2.9375 -1.65625l0 -8.1875l1.9374924 0l0 11.265625l-1.8437424 0l-0.03125 -1.109375zm6.6169205 -10.15625l0.0625 1.40625q1.296875 -1.609375 3.375 -1.609375q3.578125 0 3.609375 4.015625l0 7.453125l-1.9375 0l0 -7.453125q0 -1.21875 -0.546875 -1.796875q-0.546875 -0.59375 -1.703125 -0.59375q-0.9375 0 -1.65625 0.5q-0.703125 0.5 -1.09375 1.3125l0 8.03125l-1.9375 0l0 -11.265625l1.828125 0z" fill-rule="nonzero"/><path fill="#000000" d="m107.26408 458.4569q0 -2.59375 1.234375 -4.15625q1.234375 -1.578125 3.21875 -1.578125q1.984375 0 3.140625 1.34375l0 -5.875l1.921875 0l0 16.0l-1.765625 0l-0.09375 -1.203125q-1.15625 1.40625 -3.21875 1.40625q-1.96875 0 -3.203125 -1.59375q-1.234375 -1.609375 -1.234375 -4.1875l0 -0.15625zm1.9375 0.21875q0 1.921875 0.78125 3.015625q0.796875 1.078125 2.1875 1.078125q1.84375 0 2.6875 -1.65625l0 -5.171875q-0.875 -1.59375 -2.65625 -1.59375q-1.421875 0 -2.21875 1.09375q-0.78125 1.09375 -0.78125 3.234375zm10.05957 -0.21875q0 -1.65625 0.640625 -2.984375q0.65625 -1.328125 1.8125 -2.03125q1.171875 -0.71875 2.65625 -0.71875q2.296875 0 3.7187424 1.59375q1.421875 1.578125 1.421875 4.234375l0 0.125q0 1.65625 -0.625 2.96875q-0.625 1.296875 -1.7968674 2.03125q-1.171875 0.71875 -2.703125 0.71875q-2.28125 0 -3.703125 -1.59375q-1.421875 -1.59375 -1.421875 -4.21875l0 -0.125zm1.9375 0.21875q0 1.875 0.859375 3.015625q0.875 1.140625 2.328125 1.140625q1.46875 0 2.328125 -1.15625q0.875 -1.15625 0.875 -3.21875q0 -1.859375 -0.890625 -3.0q-0.875 -1.15625 -2.328125 -1.15625q-1.421875 0 -2.296875 1.140625q-0.875 1.125 -0.875 3.234375zm15.257439 4.15625q1.03125 0 1.796875 -0.625q0.765625 -0.625 0.859375 -1.5625l1.8125 0q-0.046875 0.96875 -0.671875 1.84375q-0.609375 0.875 -1.640625 1.390625q-1.015625 0.515625 -2.15625 0.515625q-2.3125 0 -3.671875 -1.53125q-1.359375 -1.53125 -1.359375 -4.203125l0 -0.328125q0 -1.640625 0.609375 -2.921875q0.609375 -1.28125 1.734375 -1.984375q1.125 -0.703125 2.671875 -0.703125q1.890625 0 3.140625 1.140625q1.265625 1.125 1.34375 2.9375l-1.8125 0q-0.09375 -1.09375 -0.84375 -1.796875q-0.734375 -0.703125 -1.828125 -0.703125q-1.46875 0 -2.28125 1.0625q-0.796875 1.046875 -0.796875 3.046875l0 0.359375q0 1.953125 0.796875 3.015625q0.796875 1.046875 2.296875 1.046875zm9.78894 -3.859375l-1.21875 1.265625l0 3.953125l-1.921875 0l0 -16.0l1.921875 0l0 9.671875l1.03125 -1.234375l3.515625 -3.703125l2.34375 0l-4.390625 4.703125l4.890625 6.5625l-2.25 0l-3.921875 -5.21875zm12.132782 5.421875q-2.296875 0 -3.734375 -1.5q-1.4375 -1.5 -1.4375 -4.03125l0 -0.34375q0 -1.6875 0.640625 -3.0q0.640625 -1.3125 1.78125 -2.046875q1.15625 -0.75 2.5 -0.75q2.203125 0 3.421875 1.453125q1.21875 1.4375 1.21875 4.125l0 0.8125l-7.640625 0q0.046875 1.65625 0.96875 2.6875q0.9375 1.03125 2.375 1.03125q1.03125 0 1.734375 -0.421875q0.703125 -0.421875 1.234375 -1.109375l1.1875 0.921875q-1.421875 2.171875 -4.25 2.171875zm-0.25 -10.09375q-1.15625 0 -1.953125 0.84375q-0.796875 0.84375 -0.984375 2.375l5.65625 0l0 -0.140625q-0.09375 -1.46875 -0.796875 -2.265625q-0.703125 -0.8125 -1.921875 -0.8125zm12.314957 0.34375q-0.4375 -0.0625 -0.953125 -0.0625q-1.890625 0 -2.5625 1.609375l0 8.0l-1.9375 0l0 -11.265625l1.875 0l0.03125 1.296875q0.953125 -1.5 2.6875 -1.5q0.5625 0 0.859375 0.140625l0 1.78125zm16.559464 4.03125q0 2.578125 -1.171875 4.15625q-1.171875 1.5625 -3.1875 1.5625q-2.046875 0 -3.21875 -1.296875l0 5.421875l-1.9375 0l0 -15.59375l1.765625 0l0.09375 1.25q1.171875 -1.453125 3.265625 -1.453125q2.03125 0 3.203125 1.53125q1.1875 1.515625 1.1875 4.25l0 0.171875zm-1.921875 -0.21875q0 -1.90625 -0.8125 -3.0q-0.8125 -1.109375 -2.21875 -1.109375q-1.75 0 -2.625 1.546875l0 5.390625q0.859375 1.546875 2.640625 1.546875q1.390625 0 2.203125 -1.09375q0.8125 -1.109375 0.8125 -3.28125zm11.340836 4.625q-1.125 1.3125 -3.3125 1.3125q-1.796875 0 -2.75 -1.046875q-0.9375 -1.046875 -0.9375 -3.09375l0 -7.328125l1.921875 0l0 7.28125q0 2.5625 2.078125 2.5625q2.21875 0 2.9375 -1.65625l0 -8.1875l1.9375 0l0 11.265625l-1.84375 0l-0.03125 -1.109375zm11.351303 -1.875q0 -0.78125 -0.59375 -1.21875q-0.578125 -0.4375 -2.046875 -0.75q-1.453125 -0.3125 -2.3125 -0.75q-0.859375 -0.4375 -1.28125 -1.03125q-0.40625 -0.609375 -0.40625 -1.4375q0 -1.390625 1.171875 -2.34375q1.171875 -0.953125 3.0 -0.953125q1.90625 0 3.09375 0.984375q1.203125 0.984375 1.203125 2.53125l-1.9375 0q0 -0.796875 -0.671875 -1.359375q-0.671875 -0.578125 -1.6875 -0.578125q-1.0625 0 -1.65625 0.453125q-0.59375 0.453125 -0.59375 1.203125q0 0.6875 0.546875 1.046875q0.5625 0.359375 2.0 0.6875q1.453125 0.3125 2.34375 0.765625q0.890625 0.4375 1.328125 1.078125q0.4375 0.625 0.4375 1.53125q0 1.515625 -1.21875 2.421875q-1.203125 0.90625 -3.125 0.90625q-1.359375 0 -2.40625 -0.46875q-1.03125 -0.484375 -1.625 -1.34375q-0.59375 -0.859375 -0.59375 -1.859375l1.9375 0q0.046875 0.96875 0.765625 1.546875q0.734375 0.5625 1.921875 0.5625q1.09375 0 1.75 -0.4375q0.65625 -0.453125 0.65625 -1.1875zm6.3723145 -6.921875q1.28125 -1.5625 3.328125 -1.5625q3.578125 0 3.609375 4.015625l0 7.453125l-1.9375 0l0 -7.453125q0 -1.21875 -0.546875 -1.796875q-0.546875 -0.59375 -1.703125 -0.59375q-0.9375 0 -1.65625 0.5q-0.703125 0.5 -1.09375 1.3125l0 8.03125l-1.9375 0l0 -16.0l1.9375 0l0 6.09375z" fill-rule="nonzero"/><path fill="#000000" fill-opacity="0.0" d="m400.0683 477.22797l170.51965 0l0 73.98425l-170.51965 0z" fill-rule="evenodd"/><path fill="#000000" d="m403.83392 507.2626l0 5.9374695l-2.0 0l0 -15.1562195l5.59375 0q2.484375 0 3.890625 1.265625q1.40625 1.265625 1.40625 3.359375q0 2.203125 -1.375 3.40625q-1.375 1.1875 -3.953125 1.1875l-3.5625 0zm0 -1.640625l3.59375 0q1.59375 0 2.453125 -0.75q0.859375 -0.75 0.859375 -2.1875q0 -1.34375 -0.859375 -2.15625q-0.859375 -0.8125 -2.34375 -0.84375l-3.703125 0l0 5.9375zm17.996704 7.5780945q-0.171875 -0.328125 -0.28125 -1.1875q-1.34375 1.390625 -3.203125 1.390625q-1.671875 0 -2.734375 -0.9375q-1.0625 -0.9374695 -1.0625 -2.3905945q0 -1.765625 1.328125 -2.734375q1.34375 -0.96875 3.765625 -0.96875l1.875 0l0 -0.890625q0 -1.015625 -0.609375 -1.609375q-0.59375 -0.59375 -1.765625 -0.59375q-1.03125 0 -1.734375 0.515625q-0.703125 0.515625 -0.703125 1.265625l-1.9375 0q0 -0.84375 0.59375 -1.625q0.609375 -0.796875 1.625 -1.25q1.03125 -0.453125 2.265625 -0.453125q1.953125 0 3.046875 0.96875q1.109375 0.96875 1.15625 2.671875l0 5.1875q0 1.5624695 0.390625 2.4687195l0 0.171875l-2.015625 0zm-3.203125 -1.4687195q0.90625 0 1.71875 -0.46875q0.8125 -0.46875 1.171875 -1.21875l0 -2.3125l-1.5 0q-3.546875 0 -3.546875 2.078125q0 0.90625 0.59375 1.421875q0.609375 0.5 1.5625 0.5zm10.460724 -12.53125l0 2.734375l2.09375 0l0 1.484375l-2.09375 0l0 6.984375q0 0.6875 0.28125 1.03125q0.28125 0.328125 0.953125 0.328125q0.328125 0 0.921875 -0.125l0 1.5624695q-0.765625 0.203125 -1.484375 0.203125q-1.296875 0 -1.953125 -0.78125q-0.65625 -0.7812195 -0.65625 -2.2187195l0 -6.984375l-2.046875 0l0 -1.484375l2.046875 0l0 -2.734375l1.9375 0zm8.873291 12.640625q1.03125 0 1.796875 -0.625q0.765625 -0.625 0.859375 -1.5625l1.8125 0q-0.046875 0.96875 -0.671875 1.84375q-0.609375 0.8749695 -1.640625 1.3905945q-1.015625 0.515625 -2.15625 0.515625q-2.3125 0 -3.671875 -1.5312195q-1.359375 -1.53125 -1.359375 -4.203125l0 -0.328125q0 -1.640625 0.609375 -2.921875q0.609375 -1.28125 1.734375 -1.984375q1.125 -0.703125 2.671875 -0.703125q1.890625 0 3.140625 1.140625q1.265625 1.125 1.34375 2.9375l-1.8125 0q-0.09375 -1.09375 -0.84375 -1.796875q-0.734375 -0.703125 -1.828125 -0.703125q-1.46875 0 -2.28125 1.0625q-0.796875 1.046875 -0.796875 3.046875l0 0.359375q0 1.953125 0.796875 3.015625q0.796875 1.046875 2.296875 1.046875zm8.57019 -8.546875q1.28125 -1.5625 3.328125 -1.5625q3.578125 0 3.609375 4.015625l0 7.4530945l-1.9375 0l0 -7.4530945q0 -1.21875 -0.546875 -1.796875q-0.546875 -0.59375 -1.703125 -0.59375q-0.9375 0 -1.65625 0.5q-0.703125 0.5 -1.09375 1.3125l0 8.0312195l-1.9375 0l0 -15.9999695l1.9375 0l0 6.09375zm20.0271 2.359375l3.953125 -7.609375l2.265625 0l-5.21875 9.5l0 5.6562195l-2.0 0l0 -5.6562195l-5.234375 -9.5l2.296875 0l3.9375 7.609375zm14.0802 7.5468445q-0.171875 -0.328125 -0.28125 -1.1875q-1.34375 1.390625 -3.203125 1.390625q-1.671875 0 -2.734375 -0.9375q-1.0625 -0.9374695 -1.0625 -2.3905945q0 -1.765625 1.328125 -2.734375q1.34375 -0.96875 3.765625 -0.96875l1.875 0l0 -0.890625q0 -1.015625 -0.609375 -1.609375q-0.59375 -0.59375 -1.765625 -0.59375q-1.03125 0 -1.734375 0.515625q-0.703125 0.515625 -0.703125 1.265625l-1.9375 0q0 -0.84375 0.59375 -1.625q0.609375 -0.796875 1.625 -1.25q1.03125 -0.453125 2.265625 -0.453125q1.953125 0 3.046875 0.96875q1.109375 0.96875 1.15625 2.671875l0 5.1875q0 1.5624695 0.390625 2.4687195l0 0.171875l-2.015625 0zm-3.203125 -1.4687195q0.90625 0 1.71875 -0.46875q0.8125 -0.46875 1.171875 -1.21875l0 -2.3125l-1.5 0q-3.546875 0 -3.546875 2.078125q0 0.90625 0.59375 1.421875q0.609375 0.5 1.5625 0.5zm9.648224 -9.796875l0.0625 1.25q1.234375 -1.453125 3.34375 -1.453125q2.359375 0 3.21875 1.796875q0.5625 -0.8125 1.453125 -1.296875q0.90625 -0.5 2.125 -0.5q3.71875 0 3.78125 3.921875l0 7.5468445l-1.9375 0l0 -7.4374695q0 -1.203125 -0.546875 -1.796875q-0.546875 -0.609375 -1.859375 -0.609375q-1.0625 0 -1.78125 0.640625q-0.703125 0.640625 -0.8125 1.71875l0 7.4843445l-1.9375 0l0 -7.3905945q0 -2.453125 -2.40625 -2.453125q-1.890625 0 -2.59375 1.609375l0 8.2343445l-1.921875 0l0 -11.2655945l1.8125 0zm18.97461 11.2655945l-1.921875 0l0 -15.9999695l1.921875 0l0 15.9999695z" fill-rule="nonzero"/><path fill="#4285f4" d="m117.120735 115.19446l0 0c0 -25.552948 20.71476 -46.267715 46.267723 -46.267715l0 0c12.27095 0 24.039322 4.874626 32.7162 13.551506c8.676895 8.67688 13.551514 20.445251 13.551514 32.71621l0 0c0 25.552963 -20.714767 46.267715 -46.267715 46.267715l0 0c-25.552963 0 -46.267723 -20.714752 -46.267723 -46.267715z" fill-rule="evenodd"/><path fill="#ffffff" d="m163.28493 107.64946l-4.9375 3.59375l-3.171875 -4.84375l9.65625 -6.953125l4.75 0l0 32.828125l-6.296875 0l0 -24.625z" fill-rule="nonzero"/><path fill="#34a853" d="m69.94956 249.93199l0 0c0 -25.552963 20.71476 -46.267715 46.267715 -46.267715l0 0c12.270958 0 24.03933 4.8746185 32.71621 13.551498c8.67688 8.67688 13.551514 20.445251 13.551514 32.716217l0 0c0 25.552963 -20.714767 46.267715 -46.267723 46.267715l0 0c-25.552956 0 -46.267715 -20.714752 -46.267715 -46.267715z" fill-rule="evenodd"/><path fill="#ffffff" d="m105.37325 261.29324q9.984375 -9.875 11.953125 -12.046875q1.71875 -1.859375 2.359375 -3.109375q0.65625 -1.25 0.65625 -2.84375q0 -1.671875 -1.25 -2.828125q-1.25 -1.15625 -3.3125 -1.15625q-2.015625 0 -3.265625 1.15625q-1.234375 1.15625 -1.765625 2.890625l-5.671875 -2.359375q0.53125 -1.875 1.9375 -3.625q1.421875 -1.75 3.671875 -2.84375q2.265625 -1.109375 5.203125 -1.109375q3.25 0 5.703125 1.265625q2.453125 1.265625 3.796875 3.453125q1.34375 2.1875 1.34375 4.875q0 5.328125 -5.1875 10.421875q-2.109375 2.0625 -7.828125 7.765625l0.140625 0.296875l13.296875 0l0 5.515625l-21.78125 0l0 -5.71875z" fill-rule="nonzero"/><path fill="#fbbc05" d="m145.90175 394.00812l0 0c0 -25.552948 20.714767 -46.26773 46.267715 -46.26773l0 0c12.270966 0 24.039337 4.874634 32.716217 13.551514c8.67688 8.67688 13.551498 20.445251 13.551498 32.716217l0 0c0 25.552948 -20.714767 46.2677 -46.267715 46.2677l0 0c-25.552948 0 -46.267715 -20.714752 -46.267715 -46.2677z" fill-rule="evenodd"/><path fill="#ffffff" d="m192.17694 411.85373q-4.1875 0 -7.375 -2.203125q-3.1875 -2.203125 -4.390625 -6.4375l5.953125 -2.34375q0.578125 2.34375 2.0625 3.625q1.484375 1.265625 3.75 1.265625q2.0625 0 3.5625 -1.25q1.515625 -1.25 1.515625 -3.171875q0 -2.0625 -1.609375 -3.28125q-1.609375 -1.21875 -4.34375 -1.21875l-2.828125 0l0 -5.71875l2.59375 0q2.109375 0 3.5625 -1.046875q1.46875 -1.0625 1.46875 -3.078125q0 -1.640625 -1.203125 -2.6875q-1.1875 -1.0625 -3.0625 -1.0625q-1.96875 0 -3.171875 1.0625q-1.203125 1.046875 -1.671875 2.640625l-5.71875 -2.359375q1.015625 -2.875 3.71875 -4.984375q2.71875 -2.109375 6.890625 -2.109375q3.078125 0 5.5 1.15625q2.421875 1.140625 3.765625 3.140625q1.34375 1.984375 1.34375 4.484375q0 2.640625 -1.234375 4.515625q-1.21875 1.859375 -2.9375 2.734375l0 0.375q2.390625 0.96875 3.875 3.03125q1.5 2.0625 1.5 4.984375q0 2.828125 -1.453125 5.09375q-1.4375 2.25 -4.046875 3.546875q-2.609375 1.296875 -6.015625 1.296875z" fill-rule="nonzero"/><path fill="#ea4335" d="m313.8933 461.43594l0 0c0 -25.552948 20.714752 -46.26773 46.2677 -46.26773l0 0c12.270966 0 24.039337 4.874634 32.716217 13.551514c8.67688 8.67688 13.551514 20.445251 13.551514 32.716217l0 0c0 25.552948 -20.714752 46.2677 -46.26773 46.2677l0 0c-25.552948 0 -46.2677 -20.714752 -46.2677 -46.2677z" fill-rule="evenodd"/><path fill="#ffffff" d="m362.46512 472.46906l-15.125 0l0 -5.09375l14.59375 -21.6875l6.8125 0l0 20.921875l4.09375 0l0 5.859375l-4.09375 0l0 6.046875l-6.28125 0l0 -6.046875zm0 -5.859375l0 -11.5625l-0.390625 0l-7.765625 11.5625l8.15625 0z" fill-rule="nonzero"/><path fill="#4285f4" d="m498.6447 390.7325l0 0c0 -25.552948 20.714722 -46.2677 46.2677 -46.2677l0 0c12.270996 0 24.039368 4.8746033 32.716248 13.551483c8.67688 8.67688 13.551453 20.445282 13.551453 32.716217l0 0c0 25.552979 -20.714722 46.26773 -46.2677 46.26773l0 0c-25.552979 0 -46.2677 -20.714752 -46.2677 -46.26773z" fill-rule="evenodd"/><path fill="#ffffff" d="m544.7234 408.57816q-2.59375 0 -5.0 -0.984375q-2.390625 -0.984375 -4.203125 -2.96875q-1.796875 -2.0 -2.46875 -4.921875l5.671875 -2.203125q0.578125 2.4375 2.109375 3.859375q1.53125 1.40625 3.84375 1.40625q2.296875 0 3.828125 -1.53125q1.546875 -1.53125 1.546875 -3.890625q0 -2.296875 -1.515625 -3.859375q-1.515625 -1.5625 -3.859375 -1.5625q-1.4375 0 -2.625 0.609375q-1.171875 0.59375 -1.984375 1.59375l-6.09375 -2.734375l1.859375 -16.40625l18.53125 0l0 5.515625l-13.296875 0l-1.1875 7.6875l0.375 0.09375q2.40625 -1.96875 5.71875 -1.96875q2.734375 0 5.109375 1.390625q2.375 1.390625 3.8125 3.90625q1.4375 2.515625 1.4375 5.734375q0 3.265625 -1.484375 5.8125q-1.484375 2.546875 -4.125 3.984375q-2.640625 1.4375 -6.0 1.4375z" fill-rule="nonzero"/><path fill="#000000" fill-opacity="0.0" d="m602.57117 357.3973l168.12598 0l0 73.98425l-168.12598 0z" fill-rule="evenodd"/><path fill="#000000" d="m609.8993 372.7288l-3.5625 0l0 6.140625l-2.015625 0l0 -15.15625l5.015625 0q2.5625 0 3.9375 1.171875q1.390625 1.15625 1.390625 3.375q0 1.421875 -0.765625 2.484375q-0.765625 1.046875 -2.125 1.5625l3.546875 6.4375l0 0.125l-2.140625 0l-3.28125 -6.140625zm-3.5625 -1.625l3.0625 0q1.5 0 2.375 -0.765625q0.875 -0.78125 0.875 -2.078125q0 -1.390625 -0.84375 -2.140625q-0.828125 -0.75 -2.40625 -0.765625l-3.0625 0l0 5.75zm17.788452 6.65625q-1.125 1.3125 -3.3125 1.3125q-1.796875 0 -2.75 -1.046875q-0.9375 -1.046875 -0.9375 -3.09375l0 -7.328125l1.921875 0l0 7.28125q0 2.5625 2.078125 2.5625q2.21875 0 2.9375 -1.65625l0 -8.1875l1.9375 0l0 11.265625l-1.84375 0l-0.03125 -1.109375zm6.6169434 -10.15625l0.0625 1.40625q1.296875 -1.609375 3.375 -1.609375q3.578125 0 3.609375 4.015625l0 7.453125l-1.9375 0l0 -7.453125q0 -1.21875 -0.546875 -1.796875q-0.546875 -0.59375 -1.703125 -0.59375q-0.9375 0 -1.65625 0.5q-0.703125 0.5 -1.09375 1.3125l0 8.03125l-1.9375 0l0 -11.265625l1.828125 0z" fill-rule="nonzero"/><path fill="#000000" d="m607.18054 402.65067l-1.21875 1.265625l0 3.953125l-1.921875 0l0 -16.0l1.921875 0l0 9.671875l1.03125 -1.234375l3.515625 -3.703125l2.34375 0l-4.390625 4.703125l4.890625 6.5625l-2.25 0l-3.921875 -5.21875zm14.6223755 4.109375q-1.125 1.3125 -3.3125 1.3125q-1.796875 0 -2.75 -1.046875q-0.9375 -1.046875 -0.9375 -3.09375l0 -7.328125l1.921875 0l0 7.28125q0 2.5625 2.078125 2.5625q2.21875 0 2.9375 -1.65625l0 -8.1875l1.9375 0l0 11.265625l-1.84375 0l-0.03125 -1.109375zm14.335693 -4.40625q0 2.59375 -1.1875 4.15625q-1.1875 1.5625 -3.1875 1.5625q-2.140625 0 -3.296875 -1.5l-0.09375 1.296875l-1.78125 0l0 -16.0l1.9375 0l0 5.96875q1.15625 -1.4375 3.203125 -1.4375q2.0625 0 3.234375 1.546875q1.171875 1.546875 1.171875 4.25l0 0.15625zm-1.921875 -0.21875q0 -1.96875 -0.765625 -3.03125q-0.765625 -1.078125 -2.1875 -1.078125q-1.90625 0 -2.734375 1.765625l0 4.875q0.875 1.78125 2.75 1.78125q1.390625 0 2.15625 -1.078125q0.78125 -1.078125 0.78125 -3.234375zm9.02832 5.9375q-2.296875 0 -3.734375 -1.5q-1.4375 -1.5 -1.4375 -4.03125l0 -0.34375q0 -1.6875 0.640625 -3.0q0.640625 -1.3125 1.78125 -2.046875q1.15625 -0.75 2.5 -0.75q2.203125 0 3.421875 1.453125q1.21875 1.4375 1.21875 4.125l0 0.8125l-7.640625 0q0.046875 1.65625 0.96875 2.6875q0.9375 1.03125 2.375 1.03125q1.03125 0 1.734375 -0.421875q0.703125 -0.421875 1.234375 -1.109375l1.1875 0.921875q-1.421875 2.171875 -4.25 2.171875zm-0.25 -10.09375q-1.15625 0 -1.953125 0.84375q-0.796875 0.84375 -0.984375 2.375l5.65625 0l0 -0.140625q-0.09375 -1.46875 -0.796875 -2.265625q-0.703125 -0.8125 -1.921875 -0.8125zm11.393066 8.53125q1.03125 0 1.796875 -0.625q0.765625 -0.625 0.859375 -1.5625l1.8125 0q-0.046875 0.96875 -0.671875 1.84375q-0.609375 0.875 -1.640625 1.390625q-1.015625 0.515625 -2.15625 0.515625q-2.3125 0 -3.671875 -1.53125q-1.359375 -1.53125 -1.359375 -4.203125l0 -0.328125q0 -1.640625 0.609375 -2.921875q0.609375 -1.28125 1.734375 -1.984375q1.125 -0.703125 2.671875 -0.703125q1.890625 0 3.140625 1.140625q1.265625 1.125 1.34375 2.9375l-1.8125 0q-0.09375 -1.09375 -0.84375 -1.796875q-0.734375 -0.703125 -1.828125 -0.703125q-1.46875 0 -2.28125 1.0625q-0.796875 1.046875 -0.796875 3.046875l0 0.359375q0 1.953125 0.796875 3.015625q0.796875 1.046875 2.296875 1.046875zm9.25769 -12.640625l0 2.734375l2.09375 0l0 1.484375l-2.09375 0l0 6.984375q0 0.6875 0.28125 1.03125q0.28125 0.328125 0.953125 0.328125q0.328125 0 0.921875 -0.125l0 1.5625q-0.765625 0.203125 -1.484375 0.203125q-1.296875 0 -1.953125 -0.78125q-0.65625 -0.78125 -0.65625 -2.21875l0 -6.984375l-2.046875 0l0 -1.484375l2.046875 0l0 -2.734375l1.9375 0zm6.435791 14.0l-1.921875 0l0 -16.0l1.921875 0l0 16.0zm15.330811 0q-0.171875 -0.328125 -0.28125 -1.1875q-1.34375 1.390625 -3.203125 1.390625q-1.671875 0 -2.734375 -0.9375q-1.0625 -0.9375 -1.0625 -2.390625q0 -1.765625 1.328125 -2.734375q1.34375 -0.96875 3.765625 -0.96875l1.875 0l0 -0.890625q0 -1.015625 -0.609375 -1.609375q-0.59375 -0.59375 -1.765625 -0.59375q-1.03125 0 -1.734375 0.515625q-0.703125 0.515625 -0.703125 1.265625l-1.9375 0q0 -0.84375 0.59375 -1.625q0.609375 -0.796875 1.625 -1.25q1.03125 -0.453125 2.265625 -0.453125q1.953125 0 3.046875 0.96875q1.109375 0.96875 1.15625 2.671875l0 5.1875q0 1.5625 0.390625 2.46875l0 0.171875l-2.015625 0zm-3.203125 -1.46875q0.90625 0 1.71875 -0.46875q0.8125 -0.46875 1.171875 -1.21875l0 -2.3125l-1.5 0q-3.546875 0 -3.546875 2.078125q0 0.90625 0.59375 1.421875q0.609375 0.5 1.5625 0.5zm17.351318 -4.046875q0 2.578125 -1.171875 4.15625q-1.171875 1.5625 -3.1875 1.5625q-2.046875 0 -3.21875 -1.296875l0 5.421875l-1.9375 0l0 -15.59375l1.765625 0l0.09375 1.25q1.171875 -1.453125 3.265625 -1.453125q2.03125 0 3.203125 1.53125q1.1875 1.515625 1.1875 4.25l0 0.171875zm-1.921875 -0.21875q0 -1.90625 -0.8125 -3.0q-0.8125 -1.109375 -2.21875 -1.109375q-1.75 0 -2.625 1.546875l0 5.390625q0.859375 1.546875 2.640625 1.546875q1.390625 0 2.203125 -1.09375q0.8125 -1.109375 0.8125 -3.28125zm13.887756 0.21875q0 2.578125 -1.171875 4.15625q-1.171875 1.5625 -3.1875 1.5625q-2.046875 0 -3.21875 -1.296875l0 5.421875l-1.9375 0l0 -15.59375l1.765625 0l0.09375 1.25q1.171875 -1.453125 3.265625 -1.453125q2.03125 0 3.203125 1.53125q1.1875 1.515625 1.1875 4.25l0 0.171875zm-1.921875 -0.21875q0 -1.90625 -0.8125 -3.0q-0.8125 -1.109375 -2.21875 -1.109375q-1.75 0 -2.625 1.546875l0 5.390625q0.859375 1.546875 2.640625 1.546875q1.390625 0 2.203125 -1.09375q0.8125 -1.109375 0.8125 -3.28125zm6.4658203 5.734375l-1.921875 0l0 -16.0l1.921875 0l0 16.0zm6.7695923 -2.828125l2.625 -8.4375l2.0625 0l-4.53125 13.0q-1.046875 2.8125 -3.34375 2.8125l-0.359375 -0.03125l-0.71875 -0.125l0 -1.5625l0.515625 0.03125q0.984375 0 1.53125 -0.390625q0.546875 -0.390625 0.90625 -1.453125l0.421875 -1.140625l-4.015625 -11.140625l2.09375 0l2.8125 8.4375z" fill-rule="nonzero"/><path fill="#000000" fill-opacity="0.0" d="m647.509 197.8459l133.35431 0l0 73.98424l-133.35431 0z" fill-rule="evenodd"/><path fill="#000000" d="m654.2902 231.16177l4.328125 -12.5l2.1875 0l-5.625 15.15625l-1.765625 0l-5.609375 -15.15625l2.171875 0l4.3125 12.5zm12.470642 2.859375q-2.296875 0 -3.734375 -1.5q-1.4375 -1.5 -1.4375 -4.03125l0 -0.34375q0 -1.6875 0.640625 -3.0q0.640625 -1.3125 1.78125 -2.046875q1.15625 -0.75 2.5 -0.75q2.203125 0 3.421875 1.453125q1.21875 1.4375 1.21875 4.125l0 0.8125l-7.640625 0q0.046875 1.65625 0.96875 2.6875q0.9375 1.03125 2.375 1.03125q1.03125 0 1.734375 -0.421875q0.703125 -0.421875 1.234375 -1.109375l1.1875 0.921875q-1.421875 2.171875 -4.25 2.171875zm-0.25 -10.09375q-1.15625 0 -1.953125 0.84375q-0.796875 0.84375 -0.984375 2.375l5.65625 0l0 -0.140625q-0.09375 -1.46875 -0.796875 -2.265625q-0.703125 -0.8125 -1.921875 -0.8125zm12.314941 0.34375q-0.4375 -0.0625 -0.953125 -0.0625q-1.890625 0 -2.5625 1.609375l0 8.0l-1.9375 0l0 -11.265625l1.875 0l0.03125 1.296875q0.953125 -1.5 2.6875 -1.5q0.5625 0 0.859375 0.140625l0 1.78125zm3.857666 9.546875l-1.921875 0l0 -11.265625l1.921875 0l0 11.265625zm-2.078125 -14.25q0 -0.46875 0.28125 -0.796875q0.296875 -0.328125 0.859375 -0.328125q0.5625 0 0.84375 0.328125q0.296875 0.328125 0.296875 0.796875q0 0.46875 -0.296875 0.78125q-0.28125 0.3125 -0.84375 0.3125q-0.5625 0 -0.859375 -0.3125q-0.28125 -0.3125 -0.28125 -0.78125zm6.1132812 14.25l0 -9.78125l-1.78125 0l0 -1.484375l1.78125 0l0 -1.15625q0 -1.8125 0.96875 -2.796875q0.96875 -1.0 2.734375 -1.0q0.671875 0 1.328125 0.1875l-0.109375 1.5625q-0.484375 -0.09375 -1.03125 -0.09375q-0.9375 0 -1.453125 0.546875q-0.515625 0.546875 -0.515625 1.5625l0 1.1875l2.40625 0l0 1.484375l-2.40625 0l0 9.78125l-1.921875 0zm10.138855 -2.828125l2.625 -8.4375l2.0625 0l-4.53125 13.0q-1.046875 2.8125 -3.34375 2.8125l-0.359375 -0.03125l-0.71875 -0.125l0 -1.5625l0.515625 0.03125q0.984375 0 1.53125 -0.390625q0.546875 -0.390625 0.90625 -1.453125l0.421875 -1.140625l-4.015625 -11.140625l2.09375 0l2.8125 8.4375z" fill-rule="nonzero"/><path fill="#34a853" d="m541.98663 228.74303l0 0c0 -25.552963 20.714783 -46.267715 46.26776 -46.267715l0 0c12.270935 0 24.039307 4.8746185 32.716187 13.551498c8.67688 8.67688 13.551514 20.445251 13.551514 32.716217l0 0c0 25.552948 -20.714783 46.267715 -46.2677 46.267715l0 0c-25.552979 0 -46.26776 -20.714767 -46.26776 -46.267715z" fill-rule="evenodd"/><path fill="#ffffff" d="m588.37396 246.58864q-3.453125 0 -6.140625 -1.5625q-2.6875 -1.5625 -4.1875 -4.1875q-1.484375 -2.640625 -1.484375 -5.71875q0 -3.078125 1.171875 -5.765625q1.1875 -2.6875 3.484375 -5.953125l7.921875 -11.375l4.90625 3.359375l-6.78125 9.515625l0.296875 0.28125q1.09375 -0.484375 2.5 -0.484375q2.484375 0 4.765625 1.375q2.28125 1.359375 3.6875 3.8125q1.421875 2.453125 1.421875 5.46875q0 3.171875 -1.609375 5.765625q-1.59375 2.59375 -4.265625 4.03125q-2.65625 1.4375 -5.6875 1.4375zm-0.140625 -5.75q2.25 0 3.90625 -1.53125q1.65625 -1.546875 1.65625 -3.90625q0 -2.34375 -1.65625 -3.90625q-1.65625 -1.5625 -3.90625 -1.5625q-2.21875 0 -3.875 1.5625q-1.640625 1.5625 -1.640625 3.90625q0 2.359375 1.640625 3.90625q1.65625 1.53125 3.875 1.53125z" fill-rule="nonzero"/></g></svg>