<svg version="1.1" viewBox="0.0 0.0 960.0 540.0" fill="none" stroke="none" stroke-linecap="square" stroke-miterlimit="10" xmlns:xlink="http://www.w3.org/1999/xlink" xmlns="http://www.w3.org/2000/svg"><clipPath id="g544ef7943e_0_1.0"><path d="m0 0l960.0 0l0 540.0l-960.0 0l0 -540.0z" clip-rule="nonzero"/></clipPath><g clip-path="url(#g544ef7943e_0_1.0)"><path fill="#ffffff" d="m0 0l960.0 0l0 540.0l-960.0 0z" fill-rule="evenodd"/><path fill="#4285f4" d="m960.00525 552.2047l-685.3229 0l685.3229 -685.3228z" fill-rule="evenodd"/><path fill="#000000" fill-opacity="0.0" d="m280.00525 159.00525l679.5591 0l0 381.51184l-679.5591 0z" fill-rule="evenodd"/><path fill="#ffffff" d="m584.63745 544.79236q-43.203125 0 -76.546875 -25.328125q-33.328125 -25.34375 -51.1875 -68.796875q-17.859375 -43.46875 -17.859375 -96.796875q0 -53.34375 17.859375 -96.796875q17.859375 -43.46875 50.921875 -68.796875q33.078125 -25.34375 76.8125 -25.34375q43.734375 0 76.796875 25.34375q33.0625 25.328125 51.1875 68.796875q18.140625 43.453125 18.140625 96.796875q0 53.328125 -18.140625 96.796875q-18.125 43.453125 -51.453125 68.796875q-33.328125 25.328125 -76.53125 25.328125zm0 -43.203125q30.390625 0 52.796875 -19.453125q22.40625 -19.46875 34.671875 -53.0625q12.265625 -33.609375 12.265625 -75.203125q0 -41.609375 -12.265625 -75.203125q-12.265625 -33.609375 -34.671875 -53.0625q-22.40625 -19.46875 -52.796875 -19.46875q-30.40625 0 -52.8125 19.46875q-22.390625 19.453125 -34.390625 53.0625q-12.0 33.59375 -12.0 75.203125q0 41.59375 12.0 75.203125q12.0 33.59375 34.390625 53.0625q22.40625 19.453125 52.8125 19.453125zm283.73096 -266.65625l-64.0 45.859375l-23.46875 -34.65625l104.0 -74.671875l28.796875 0l0 364.79688l-45.328125 0l0 -301.32812z" fill-rule="nonzero"/></g></svg>