<svg version="1.1" viewBox="0.0 0.0 960.0 540.0" fill="none" stroke="none" stroke-linecap="square" stroke-miterlimit="10" xmlns:xlink="http://www.w3.org/1999/xlink" xmlns="http://www.w3.org/2000/svg"><clipPath id="g544ef7943e_0_41.0"><path d="m0 0l960.0 0l0 540.0l-960.0 0l0 -540.0z" clip-rule="nonzero"/></clipPath><g clip-path="url(#g544ef7943e_0_41.0)"><path fill="#ffffff" d="m0 0l960.0 0l0 540.0l-960.0 0z" fill-rule="evenodd"/><path fill="#ea4335" d="m423.3491 270.0l0 0c0 -195.46532 158.45596 -353.92126 353.92123 -353.92126l0 0c93.86578 0 183.88702 37.28802 250.2602 103.66113c66.37305 66.373116 103.66113 156.39436 103.66113 250.26012l0 0c0 195.4653 -158.456 353.92126 -353.92133 353.92126l0 0c-195.46527 0 -353.92123 -158.45596 -353.92123 -353.92126z" fill-rule="evenodd"/><path fill="#000000" fill-opacity="0.0" d="m328.00525 159.00525l679.5591 0l0 381.51184l-679.5591 0z" fill-rule="evenodd"/><path fill="#ffffff" d="m554.77155 544.79236q-43.203125 0 -76.546875 -25.328125q-33.328125 -25.34375 -51.1875 -68.796875q-17.859375 -43.46875 -17.859375 -96.796875q0 -53.34375 17.859375 -96.796875q17.859375 -43.46875 50.921875 -68.796875q33.078125 -25.34375 76.8125 -25.34375q43.734375 0 76.796875 25.34375q33.0625 25.328125 51.1875 68.796875q18.140625 43.453125 18.140625 96.796875q0 53.328125 -18.140625 96.796875q-18.125 43.453125 -51.453125 68.796875q-33.328125 25.328125 -76.53125 25.328125zm0 -43.203125q30.390625 0 52.796875 -19.453125q22.40625 -19.46875 34.671875 -53.0625q12.265625 -33.609375 12.265625 -75.203125q0 -41.609375 -12.265625 -75.203125q-12.265625 -33.609375 -34.671875 -53.0625q-22.40625 -19.46875 -52.796875 -19.46875q-30.40625 0 -52.8125 19.46875q-22.390625 19.453125 -34.390625 53.0625q-12.0 33.59375 -12.0 75.203125q0 41.59375 12.0 75.203125q12.0 33.59375 34.390625 53.0625q22.40625 19.453125 52.8125 19.453125zm196.2622 -10.65625q104.53125 -105.078125 133.85938 -137.0625q27.203125 -29.34375 36.796875 -45.875q9.609375 -16.53125 9.609375 -40.0q0 -15.46875 -8.0 -29.859375q-8.0 -14.40625 -23.734375 -23.203125q-15.734375 -8.796875 -37.59375 -8.796875q-28.8125 0 -46.40625 16.796875q-17.59375 16.796875 -22.9375 36.53125l-41.0625 -16.53125q4.796875 -17.0625 18.65625 -35.46875q13.875 -18.40625 37.34375 -31.46875q23.46875 -13.0625 55.46875 -13.0625q33.59375 0 59.453125 14.40625q25.875 14.390625 40.265625 38.390625q14.40625 24.0 14.40625 51.734375q0 56.0 -58.65625 115.734375l-109.34375 109.859375l172.26562 0l0 43.203125l-230.39062 0l0 -45.328125z" fill-rule="nonzero"/></g></svg>