<svg version="1.1" viewBox="0.0 0.0 960.0 540.0" fill="none" stroke="none" stroke-linecap="square" stroke-miterlimit="10" xmlns:xlink="http://www.w3.org/1999/xlink" xmlns="http://www.w3.org/2000/svg"><clipPath id="g544ef7943e_0_45.0"><path d="m0 0l960.0 0l0 540.0l-960.0 0l0 -540.0z" clip-rule="nonzero"/></clipPath><g clip-path="url(#g544ef7943e_0_45.0)"><path fill="#ffffff" d="m0 0l960.0 0l0 540.0l-960.0 0z" fill-rule="evenodd"/><path fill="#fbbc05" d="m960.00525 552.2047l-685.3229 0l685.3229 -685.3228z" fill-rule="evenodd"/><path fill="#000000" fill-opacity="0.0" d="m280.00525 159.00525l679.5591 0l0 381.51184l-679.5591 0z" fill-rule="evenodd"/><path fill="#ffffff" d="m501.97162 544.79236q-43.203125 0 -76.546875 -25.328125q-33.328125 -25.34375 -51.1875 -68.796875q-17.859375 -43.46875 -17.859375 -96.796875q0 -53.34375 17.859375 -96.796875q17.859375 -43.46875 50.921875 -68.796875q33.078125 -25.34375 76.8125 -25.34375q43.734375 0 76.796875 25.34375q33.0625 25.328125 51.1875 68.796875q18.140625 43.453125 18.140625 96.796875q0 53.328125 -18.140625 96.796875q-18.125 43.453125 -51.453125 68.796875q-33.328125 25.328125 -76.53125 25.328125zm0 -43.203125q30.390625 0 52.796875 -19.453125q22.40625 -19.46875 34.671875 -53.0625q12.265625 -33.609375 12.265625 -75.203125q0 -41.609375 -12.265625 -75.203125q-12.265625 -33.609375 -34.671875 -53.0625q-22.40625 -19.46875 -52.796875 -19.46875q-30.40625 0 -52.8125 19.46875q-22.390625 19.453125 -34.390625 53.0625q-12.0 33.59375 -12.0 75.203125q0 41.59375 12.0 75.203125q12.0 33.59375 34.390625 53.0625q22.40625 19.453125 52.8125 19.453125zm311.46533 43.203125q-22.9375 0 -46.9375 -9.59375q-24.0 -9.609375 -43.46875 -30.140625q-19.46875 -20.53125 -28.0 -51.46875l41.0625 -17.0625q8.546875 30.9375 29.078125 48.0q20.53125 17.0625 48.265625 17.0625q20.265625 0 37.859375 -8.796875q17.609375 -8.796875 28.0 -24.53125q10.40625 -15.734375 10.40625 -34.9375q0 -18.65625 -10.40625 -34.125q-10.390625 -15.46875 -28.265625 -24.265625q-17.859375 -8.796875 -39.203125 -8.796875l-31.46875 0l0 -42.140625l28.28125 0q29.328125 0 49.0625 -16.796875q19.734375 -16.796875 19.734375 -44.53125q0 -25.609375 -19.203125 -41.0625q-19.203125 -15.46875 -47.46875 -15.46875q-27.734375 0 -43.46875 14.40625q-15.734375 14.390625 -22.65625 35.1875l-41.609375 -17.59375q9.609375 -28.8125 37.0625 -52.0q27.46875 -23.203125 70.671875 -23.203125q32.0 0 57.59375 12.796875q25.609375 12.796875 40.265625 35.734375q14.671875 22.9375 14.671875 51.203125q0 28.265625 -14.40625 48.0q-14.390625 19.734375 -35.71875 30.921875l0 2.140625q27.1875 11.203125 44.78125 34.40625q17.609375 23.1875 17.609375 54.65625q0 32.0 -16.265625 57.609375q-16.265625 25.59375 -44.265625 40.0q-28.0 14.390625 -61.59375 14.390625z" fill-rule="nonzero"/></g></svg>