<svg version="1.1" viewBox="0.0 0.0 960.0 540.0" fill="none" stroke="none" stroke-linecap="square" stroke-miterlimit="10" xmlns:xlink="http://www.w3.org/1999/xlink" xmlns="http://www.w3.org/2000/svg"><clipPath id="g544ef7943e_0_161.0"><path d="m0 0l960.0 0l0 540.0l-960.0 0l0 -540.0z" clip-rule="nonzero"/></clipPath><g clip-path="url(#g544ef7943e_0_161.0)"><path fill="#ffffff" d="m0 0l960.0 0l0 540.0l-960.0 0z" fill-rule="evenodd"/><path fill="#4285f4" d="m960.00525 552.2047l-685.3229 0l685.3229 -685.3228z" fill-rule="evenodd"/><path fill="#000000" fill-opacity="0.0" d="m280.00525 159.00525l679.5591 0l0 381.51184l-679.5591 0z" fill-rule="evenodd"/><path fill="#ffffff" d="m487.03845 544.79236q-43.203125 0 -76.546875 -25.328125q-33.328125 -25.34375 -51.1875 -68.796875q-17.859375 -43.46875 -17.859375 -96.796875q0 -53.34375 17.859375 -96.796875q17.859375 -43.46875 50.921875 -68.796875q33.078125 -25.34375 76.8125 -25.34375q43.734375 0 76.796875 25.34375q33.0625 25.328125 51.1875 68.796875q18.140625 43.453125 18.140625 96.796875q0 53.328125 -18.140625 96.796875q-18.125 43.453125 -51.453125 68.796875q-33.328125 25.328125 -76.53125 25.328125zm0 -43.203125q30.390625 0 52.796875 -19.453125q22.40625 -19.46875 34.671875 -53.0625q12.265625 -33.609375 12.265625 -75.203125q0 -41.609375 -12.265625 -75.203125q-12.265625 -33.609375 -34.671875 -53.0625q-22.40625 -19.46875 -52.796875 -19.46875q-30.40625 0 -52.8125 19.46875q-22.390625 19.453125 -34.390625 53.0625q-12.0 33.59375 -12.0 75.203125q0 41.59375 12.0 75.203125q12.0 33.59375 34.390625 53.0625q22.40625 19.453125 52.8125 19.453125zm318.3872 43.203125q-25.59375 0 -50.65625 -10.921875q-25.0625 -10.9375 -44.265625 -33.0625q-19.203125 -22.140625 -27.203125 -54.671875l40.0 -16.0q8.53125 32.53125 29.859375 52.0q21.34375 19.453125 51.203125 19.453125q35.734375 0 58.390625 -21.859375q22.671875 -21.875 22.671875 -57.0625q0 -34.671875 -22.40625 -57.328125q-22.390625 -22.671875 -57.59375 -22.671875q-19.1875 0 -36.265625 8.796875q-17.0625 8.796875 -27.734375 24.265625l-45.859375 -20.265625l23.46875 -184.0l188.79688 0l0 43.203125l-151.46875 0l-14.390625 110.390625l2.125 0.53125q28.265625 -24.0 69.328125 -24.0q31.46875 0 58.40625 15.46875q26.9375 15.46875 42.9375 43.203125q16.0 27.734375 16.0 61.875q0 34.125 -16.265625 62.125q-16.265625 28.0 -44.8125 44.265625q-28.53125 16.265625 -64.265625 16.265625z" fill-rule="nonzero"/></g></svg>