<svg version="1.1" viewBox="0.0 0.0 960.0 540.0" fill="none" stroke="none" stroke-linecap="square" stroke-miterlimit="10" xmlns:xlink="http://www.w3.org/1999/xlink" xmlns="http://www.w3.org/2000/svg"><clipPath id="g544ef7943e_0_165.0"><path d="m0 0l960.0 0l0 540.0l-960.0 0l0 -540.0z" clip-rule="nonzero"/></clipPath><g clip-path="url(#g544ef7943e_0_165.0)"><path fill="#ffffff" d="m0 0l960.0 0l0 540.0l-960.0 0z" fill-rule="evenodd"/><path fill="#ea4335" d="m391.3491 270.0l0 0c0 -195.46532 158.45596 -353.92126 353.92123 -353.92126l0 0c93.86578 0 183.88702 37.28802 250.26013 103.66113c66.37311 66.373116 103.661194 156.39436 103.661194 250.26012l0 0c0 195.4653 -158.456 353.92126 -353.92133 353.92126l0 0c-195.46527 0 -353.92123 -158.45596 -353.92123 -353.92126z" fill-rule="evenodd"/><path fill="#000000" fill-opacity="0.0" d="m328.00525 159.00525l679.5591 0l0 381.51184l-679.5591 0z" fill-rule="evenodd"/><path fill="#ffffff" d="m538.2384 544.79236q-43.203125 0 -76.546875 -25.328125q-33.328125 -25.34375 -51.1875 -68.796875q-17.859375 -43.46875 -17.859375 -96.796875q0 -53.34375 17.859375 -96.796875q17.859375 -43.46875 50.921875 -68.796875q33.078125 -25.34375 76.8125 -25.34375q43.734375 0 76.796875 25.34375q33.0625 25.328125 51.1875 68.796875q18.140625 43.453125 18.140625 96.796875q0 53.328125 -18.140625 96.796875q-18.125 43.453125 -51.453125 68.796875q-33.328125 25.328125 -76.53125 25.328125zm0 -43.203125q30.390625 0 52.796875 -19.453125q22.40625 -19.46875 34.671875 -53.0625q12.265625 -33.609375 12.265625 -75.203125q0 -41.609375 -12.265625 -75.203125q-12.265625 -33.609375 -34.671875 -53.0625q-22.40625 -19.46875 -52.796875 -19.46875q-30.40625 0 -52.8125 19.46875q-22.390625 19.453125 -34.390625 53.0625q-12.0 33.59375 -12.0 75.203125q0 41.59375 12.0 75.203125q12.0 33.59375 34.390625 53.0625q22.40625 19.453125 52.8125 19.453125zm321.05908 43.203125q-36.265625 0 -64.796875 -17.59375q-28.53125 -17.609375 -44.265625 -45.609375q-15.734375 -28.0 -15.734375 -58.921875q0 -29.34375 12.0 -56.265625q12.0 -26.9375 34.40625 -60.0l95.453125 -143.46875l36.265625 25.0625l-91.71875 128.53125l1.0625 1.0625q18.65625 -12.796875 46.921875 -12.796875q27.734375 0 54.40625 15.46875q26.671875 15.46875 43.46875 42.40625q16.796875 26.921875 16.796875 60.0q0 32.0 -17.0625 60.0q-17.0625 28.0 -45.609375 45.0625q-28.53125 17.0625 -61.59375 17.0625zm0 -43.203125q21.328125 0 39.453125 -10.390625q18.140625 -10.40625 28.8125 -28.265625q10.671875 -17.875 10.671875 -39.734375q0 -21.34375 -10.671875 -39.203125q-10.671875 -17.859375 -28.8125 -28.265625q-18.125 -10.40625 -39.453125 -10.40625q-21.328125 0 -39.734375 10.40625q-18.390625 10.40625 -29.0625 28.265625q-10.671875 17.859375 -10.671875 39.203125q0 21.859375 10.671875 39.734375q10.671875 17.859375 29.0625 28.265625q18.40625 10.390625 39.734375 10.390625z" fill-rule="nonzero"/></g></svg>